nColumns=19
nRows=29
DataType=double
version=3
OpenSimVersion=4.1
endheader
time	ground_force_calcn_l_vx	ground_force_calcn_l_vy	ground_force_calcn_l_vz	ground_force_calcn_l_px	ground_force_calcn_l_py	ground_force_calcn_l_pz	ground_force_calcn_l_mx	ground_force_calcn_l_my	ground_force_calcn_l_mz	ground_force_calcn_r_vx	ground_force_calcn_r_vy	ground_force_calcn_r_vz	ground_force_calcn_r_px	ground_force_calcn_r_py	ground_force_calcn_r_pz	ground_force_calcn_r_mx	ground_force_calcn_r_my	ground_force_calcn_r_mz
8.1625	-55.2976	169.286	2.70906	0.18072	1.99819e-17	0.0581805	0.617061	-1.88905	-0.0302302	125.939	659.305	9.56338	-0.328817	-3.64688e-17	-0.0263991	2.91142	15.2416	0.221083
8.1725	-42.3544	127.033	4.11765	0.181683	2.00501e-17	0.0718034	0.447715	-1.34282	-0.0435264	135.361	705.216	16.5431	-0.319787	-3.54401e-17	-0.0290919	3.29621	17.1729	0.402846
8.18249	-31.1175	91.4588	4.6874	0.18185	2.00273e-17	0.0879146	0.314692	-0.924926	-0.0474039	142.181	745.623	23.307	-0.310297	-3.43623e-17	-0.0320955	3.58499	18.8004	0.58767
8.19248	-21.7894	62.6978	4.64822	0.181533	1.99467e-17	0.106469	0.216572	-0.623173	-0.0462	146.276	779.897	29.4148	-0.300576	-3.3263e-17	-0.0352074	3.75884	20.0409	0.75587
8.20247	-14.4645	40.3815	4.08224	0.181183	1.98332e-17	0.126293	0.176741	-0.493419	-0.0498806	147.526	807.44	34.5533	-0.290801	-3.21627e-17	-0.0382558	3.81121	20.8595	0.892654
8.21246	-8.94577	23.8573	3.19812	0.181318	1.9704e-17	0.146685	0.158915	-0.423808	-0.0568123	146.142	827.896	38.5703	-0.281033	-3.1068e-17	-0.0411256	3.7556	21.2755	0.991188
8.22245	-4.91931	12.4031	2.19034	0.182201	1.957e-17	0.166575	0.120821	-0.304627	-0.053796	142.485	841.027	41.5078	-0.271265	-2.99778e-17	-0.0437869	3.60378	21.2716	1.04983
8.23244	-2.2276	5.22744	1.22633	0.184548	1.94372e-17	0.186408	0.073723	-0.173003	-0.0405858	136.808	846.715	43.4211	-0.261522	-2.88947e-17	-0.0462546	3.36562	20.8302	1.06821
8.24243	0	0	0	0	-2.78238e-17	0	0	0	0	129.465	845.074	44.3712	-0.251862	-2.78238e-17	-0.0485452	3.07566	20.0761	1.05411
8.25242	0	0	0	0	-2.6777e-17	0	0	0	0	120.913	836.517	44.4637	-0.242397	-2.6777e-17	-0.0507126	2.75479	19.0586	1.01303
8.26241	0	0	0	0	-2.57567e-17	0	0	0	0	111.456	821.701	43.9081	-0.233156	-2.57567e-17	-0.0528317	2.42048	17.8448	0.953549
8.2724	0	0	0	0	-2.47571e-17	0	0	0	0	101.402	801.35	42.8949	-0.224095	-2.47571e-17	-0.0549312	2.08908	16.5094	0.883722
8.28239	0	0	0	0	-2.37706e-17	0	0	0	0	91.1279	776.372	41.6924	-0.215146	-2.37706e-17	-0.0570531	1.76496	15.0368	0.807499
8.29239	0	0	0	0	-2.2791e-17	0	0	0	0	80.8811	747.947	40.4318	-0.206262	-2.2791e-17	-0.0592757	1.46342	13.533	0.731553
8.30238	0	0	0	0	-2.1815e-17	0	0	0	0	70.7694	717.346	39.1549	-0.197414	-2.1815e-17	-0.0616254	1.19488	12.1117	0.661094
8.31237	0	0	0	0	-2.08417e-17	0	0	0	0	61.0641	685.695	37.8829	-0.188592	-2.08417e-17	-0.0640239	0.957087	10.7472	0.593757
8.32236	0	0	0	0	-1.98697e-17	0	0	0	0	52.0019	654.081	36.6415	-0.17978	-1.98697e-17	-0.0663869	0.751506	9.45247	0.529525
8.33235	0	0	0	0	-1.89035e-17	0	0	0	0	43.5987	623.603	35.3604	-0.171022	-1.89035e-17	-0.0687024	0.579616	8.2904	0.470094
8.34234	0	0	0	0	-1.7942e-17	0	0	0	0	35.9428	595.173	34.0363	-0.162307	-1.7942e-17	-0.0709571	0.439847	7.28339	0.416516
8.35233	0	0	0	0	-1.69734e-17	0	0	0	0	29.1053	569.495	32.7482	-0.153525	-1.69734e-17	-0.0731162	0.324744	6.35416	0.365389
8.36232	0	0	0	0	-1.5995e-17	0	0	0	0	22.9953	547.178	31.5295	-0.144651	-1.5995e-17	-0.0752007	0.231811	5.516	0.317843
8.37231	0	0	0	0	-1.50221e-17	0	0	0	0	17.5	528.596	30.3055	-0.135825	-1.50221e-17	-0.0771831	0.157938	4.77059	0.273508
8.3823	0	0	0	0	-1.40627e-17	0	0	0	0	12.634	513.864	29.0631	-0.127115	-1.40627e-17	-0.0789212	0.100411	4.08401	0.230983
8.39229	0	0	0	0	-1.3112e-17	0	0	0	0	8.28093	502.985	27.8212	-0.118483	-1.3112e-17	-0.0803834	0.0569427	3.45871	0.191309
8.40228	0	0	0	0	-1.21593e-17	0	0	0	0	4.22751	495.96	26.6809	-0.109834	-1.21593e-17	-0.0816987	0.0245278	2.87753	0.154801
8.41228	0	0	0	0	-1.11906e-17	0	0	0	0	0.361595	492.676	25.7143	-0.101038	-1.11906e-17	-0.0829507	0.00167817	2.28652	0.119341
8.42227	0	0	0	0	-1.01933e-17	0	0	0	0	-3.43198	492.815	24.949	-0.0919867	-1.01933e-17	-0.0841274	-0.0117733	1.69058	0.0855866
8.43226	0	0	0	0	-9.1743e-18	0	0	0	0	-7.32886	496.031	24.388	-0.0827468	-9.1743e-18	-0.0852242	-0.0167069	1.13076	0.0555952
8.44225	0	0	0	0	-8.13901e-18	0	0	0	0	-11.3679	502.056	24.1192	-0.0733697	-8.13901e-18	-0.0862319	-0.0142137	0.627741	0.0301572
